<?xml version="1.0" encoding="utf-8"?>
<!-- Generator: Adobe Illustrator 16.0.4, SVG Export Plug-In . SVG Version: 6.00 Build 0)  -->
<!DOCTYPE svg PUBLIC "-//W3C//DTD SVG 1.1//EN" "http://www.w3.org/Graphics/SVG/1.1/DTD/svg11.dtd">
<svg version="1.1" id="Layer_1" xmlns="http://www.w3.org/2000/svg" xmlns:xlink="http://www.w3.org/1999/xlink" x="0px" y="0px"
	 width="612px" height="95.147px" viewBox="0 0 612 95.147" enable-background="new 0 0 612 95.147" xml:space="preserve">
<g>
	<path fill="#0078bf" d="M73.741,28.386v16.337h14.43c3.853,0,6.977-3.129,6.977-6.982V6.982C95.147,3.124,92.023,0,88.17,0H57.406
		c-3.853,0-6.977,3.124-6.977,6.979v14.43h16.338c3.85,0,6.971,3.124,6.971,6.977H73.741z M21.409,28.386v16.337H6.979
		C3.121,44.721,0,41.589,0,37.739V6.982C0,3.121,3.124,0,6.979,0h30.76c3.858,0,6.982,3.124,6.982,6.979v14.43H28.383
		c-3.85,0-6.971,3.124-6.971,6.977H21.409z"/>
	<path fill="#00843d" d="M21.409,66.761V50.428H6.979C3.121,50.428,0,53.552,0,57.406V88.17c0,3.853,3.124,6.977,6.979,6.977h30.76
		c3.858,0,6.982-3.124,6.982-6.977V73.738H28.383c-3.85,0-6.971-3.121-6.971-6.972L21.409,66.761z M73.741,66.761V50.428h14.43
		c3.853,0,6.977,3.124,6.977,6.978V88.17c0,3.853-3.121,6.977-6.977,6.977H57.406c-3.853,0-6.977-3.124-6.977-6.977V73.738h16.338
		c3.85,0,6.971-3.121,6.971-6.972L73.741,66.761z"/>
	<path fill="#4b4b45" d="M261.191,71.886l0.064-0.035l-0.064-0.255 M157.827,57.249c-1.615,10.755-8.807,17.269-19.698,17.269
		c-14.917,0-21.569-13.774-21.569-26.946c0-13.171,6.652-26.955,21.571-26.955c10.755,0,17.95,6.187,19.701,17.274l-9.952,1.344
		c-1.006-5.441-3.427-10.351-9.747-10.351c-8.999,0-10.814,11.963-10.814,18.687c0,6.727,1.815,18.685,10.816,18.685
		c6.258,0,8.744-4.906,9.752-10.281l9.952,1.277L157.827,57.249z M163.851,21.42h9.952v52.294h-9.952V21.42z M203.072,50.996
		c0-4.239-1.676-8.4-6.45-8.4c-4.505,0-6.319,4.364-6.455,8.4H203.072L203.072,50.996z M189.832,57.249
		c-0.335,4.576,2.294,9.946,7.397,9.946c3.167,0,5.21-2.067,6.266-5.455l9.324,1.086c-2.15,7.464-9.339,11.697-16.462,11.697
		c-10.955,0-16.532-9.678-16.532-19.624c0-10.016,5.508-19.624,16.532-19.624c9.473,0,16.737,4.502,16.465,21.979h-22.985
		L189.832,57.249z M273.814,50.996c0-4.239-1.676-8.4-6.453-8.4c-4.51,0-6.322,4.364-6.455,8.4h12.905H273.814z M260.574,57.249
		c-0.335,4.576,2.288,9.946,7.397,9.946c3.167,0,5.208-2.067,6.267-5.455l9.321,1.086c-2.15,7.464-9.339,11.697-16.465,11.697
		c-10.955,0-16.532-9.678-16.532-19.624c0-10.016,5.508-19.624,16.532-19.624c9.473,0,16.737,4.502,16.465,21.979h-22.984V57.249z
		 M237.478,73.714h-10.484l-11.695-37.639h10.417l6.585,27.801h0.133l6.453-27.801h9.952 M290.253,21.42h9.952v52.294h-9.952V21.42z
		 M328.072,56.508c-4.098,0.737-12.232,1.145-12.232,6.652c0,2.22,1.075,4.034,3.433,4.034c4.098,0,6.918-2.422,8.802-4.906v-5.782
		L328.072,56.508z M328.671,70.25c-3.699,2.624-5.974,4.271-10.745,4.271c-6.524,0-11.83-4.436-11.83-11.148
		c0-10.625,13.978-12.778,21.979-13.65c0.671-5.242-1.08-7.126-4.771-7.126c-3.161,0-5.447,1.41-5.987,4.702l-9.536-1.477
		c2.208-7.999,7.591-10.553,15.451-10.553c10.148,0,14.787,4.837,14.787,11.899v18.688c0,2.688,0.133,5.375,1.344,7.857h-9.568
		c-0.836-1.714-1.129-3.465-1.129-3.465L328.671,70.25z M356.024,39.974c3.155-2.624,7.051-4.71,11.221-4.71
		c4.098,0,9.877,2.496,9.877,11.761v26.689h-9.951V51.062c0-3.028,0.205-7.796-4.098-7.796c-2.896,0-5.179,2.081-7.057,4.098v26.351
		h-9.952V36.076h9.952v3.898H356.024z M479.755,57.249c-1.612,10.755-8.802,17.269-19.69,17.269
		c-14.922,0-21.569-13.774-21.569-26.946c0-13.171,6.647-26.955,21.569-26.955c10.755,0,17.947,6.187,19.69,17.274l-9.943,1.344
		c-1.012-5.441-3.433-10.351-9.747-10.351c-9.007,0-10.822,11.963-10.822,18.687c0,6.727,1.817,18.685,10.822,18.685
		c6.253,0,8.735-4.906,9.747-10.281l9.943,1.277V57.249z M485.795,21.42h9.946v52.294h-9.946V21.42z M514.021,73.714h-9.952V36.076
		h9.952V73.714z M514.021,30.562h-9.952V21.42h9.952V30.562z M532.1,39.974c3.161-2.624,7.059-4.71,11.224-4.71
		c4.098,0,9.888,2.496,9.888,11.761v26.689h-9.952V51.062c0-3.028,0.205-7.796-4.098-7.796c-2.893,0-5.17,2.081-7.059,4.098v26.351
		h-9.946V36.076h9.946v3.898H532.1z M571.353,73.714H561.4V36.076h9.952V73.714z M571.353,30.562H561.4V21.42h9.952V30.562z
		 M609.743,61.545c-1.612,7.868-7.327,12.975-15.726,12.975c-10.957,0-16.531-9.678-16.531-19.624
		c0-10.015,5.508-19.624,16.523-19.624c8.403,0,14.119,5.109,15.731,12.971l-9.028,1.225c-0.679-3.044-1.666-6.865-6.706-6.865
		c-5.375,0-6.316,7.594-6.316,12.299c0,4.709,0.941,12.298,6.316,12.298c5.04,0,5.761-3.448,6.66-6.825l9.074,1.171H609.743z
		 M407.081,61.758c-1.535,2.348-3.485,4.301-6.444,4.301c-5.981,0-6.857-7.265-6.857-11.762c0-4.178,1.145-11.165,6.652-11.165
		c2.893,0,4.906,2.015,6.646,4.098v14.528H407.081z M417.033,67.011V21.42h-9.952v18.349c-2.815-2.488-5.233-4.502-9.265-4.502
		c-5.444,0-13.778,4.771-13.778,18.689c0,15.859,6.984,20.563,14.581,20.563c4.17,0,6.413-1.442,9.436-4.135
		c0,0,0.304,1.814,1.11,3.326h9.201c-1.038-2.129-1.277-4.398-1.331-6.7H417.033z"/>
</g>
</svg>
