<?xml version="1.0" standalone="no"?>
<!DOCTYPE svg PUBLIC "-//W3C//DTD SVG 20010904//EN"
 "http://www.w3.org/TR/2001/REC-SVG-20010904/DTD/svg10.dtd">
<svg version="1.0" xmlns="http://www.w3.org/2000/svg"
 width="916.000000pt" height="146.000000pt" viewBox="0 0 916.000000 146.000000"
 preserveAspectRatio="xMidYMid meet">

<g transform="translate(0.000000,146.000000) scale(0.100000,-0.100000)"
fill="#000000" stroke="none">
<path d="M55 1449 c-54 -31 -55 -33 -55 -324 0 -234 2 -274 16 -294 28 -39 73
-51 193 -51 l110 0 3 145 3 145 33 32 32 33 140 3 140 4 0 126 c0 119 -2 129
-24 157 l-24 30 -274 2 c-188 2 -279 -1 -293 -8z"/>
<path d="M814 1450 c-46 -18 -54 -46 -54 -181 l0 -127 140 -4 140 -3 32 -33
33 -32 3 -146 4 -146 122 3 c133 4 168 16 186 65 6 14 10 142 10 286 l0 260
-34 34 -34 34 -263 -1 c-145 0 -274 -4 -285 -9z"/>
<path d="M1860 801 l0 -321 163 0 c201 0 249 12 312 75 56 55 79 127 79 245 0
148 -45 244 -137 293 -38 19 -60 22 -229 25 l-188 4 0 -321z m310 244 c32 -29
44 -91 44 -240 1 -149 -12 -221 -45 -251 -10 -9 -41 -19 -69 -22 l-50 -5 0
273 0 273 50 -5 c29 -3 59 -13 70 -23z"/>
<path d="M4132 1053 c-11 -38 -51 -173 -89 -301 l-69 -233 -22 30 c-31 43 -85
55 -212 47 -114 -6 -143 1 -124 31 10 15 23 17 79 14 88 -4 149 14 195 58 50
47 59 93 32 154 -14 32 -32 52 -61 69 -24 13 -40 29 -38 38 3 15 10 16 60 4
36 -8 57 10 57 52 0 97 -169 81 -172 -16 l-1 -35 -77 0 c-67 0 -82 -4 -118
-27 -51 -34 -72 -65 -79 -117 -7 -52 11 -94 54 -130 33 -27 34 -29 15 -35 -34
-11 -82 -73 -82 -106 0 -30 33 -70 57 -70 20 0 15 -18 -7 -25 -11 -4 -28 -18
-37 -31 -21 -32 -6 -67 39 -90 72 -37 304 -27 376 17 37 22 72 74 72 107 0 18
6 22 29 22 27 0 30 4 50 70 l22 70 94 0 94 0 11 -42 c26 -101 15 -93 122 -96
l95 -3 -82 293 c-45 161 -85 305 -89 321 -6 27 -7 27 -90 27 l-84 0 -20 -67z
m84 -240 c18 -70 34 -129 34 -130 0 -2 -34 -3 -76 -3 -68 0 -76 2 -72 18 27
97 74 250 76 247 2 -2 19 -61 38 -132z m-475 85 c19 -36 17 -174 -2 -194 -22
-21 -57 -10 -65 22 -11 44 0 174 16 184 24 15 38 12 51 -12z m86 -474 c11 -16
11 -21 -7 -39 -18 -17 -33 -20 -110 -20 -72 0 -93 3 -107 18 -14 13 -15 21 -7
34 16 26 50 33 138 29 63 -2 82 -7 93 -22z"/>
<path d="M4540 800 l0 -320 95 0 95 0 0 320 0 320 -95 0 -95 0 0 -320z"/>
<path d="M2605 951 c-90 -42 -136 -125 -137 -247 0 -79 22 -143 63 -181 75
-69 253 -71 320 -4 28 28 54 100 41 112 -4 3 -19 9 -33 13 -25 5 -27 3 -33
-39 -15 -100 -124 -116 -160 -23 -9 21 -16 56 -16 78 l0 40 126 0 125 0 -6 48
c-16 116 -54 180 -122 208 -45 19 -121 17 -168 -5z m121 -61 c7 -14 14 -51 16
-82 l5 -58 -49 0 -48 0 0 50 c0 99 47 154 76 90z"/>
<path d="M3023 953 l-53 -4 0 -235 0 -234 84 0 84 0 4 163 c2 130 7 168 20
194 18 32 49 50 68 38 6 -4 10 -81 10 -201 l0 -194 90 0 90 0 0 193 c0 210 -8
248 -60 274 -56 28 -141 10 -192 -42 l-28 -28 0 42 c0 46 12 43 -117 34z"/>
<path d="M51 686 c-48 -26 -50 -43 -51 -329 l0 -269 29 -29 29 -29 277 0 277
0 29 29 29 29 0 131 0 131 -130 0 c-205 0 -220 16 -220 225 l0 125 -122 0
c-83 -1 -131 -5 -147 -14z"/>
<path d="M1110 575 c0 -209 -16 -225 -225 -225 l-125 0 0 -131 0 -131 29 -29
29 -29 276 0 275 0 28 24 28 24 3 263 c2 145 0 274 -3 287 -3 13 -18 35 -32
48 -25 23 -32 24 -154 24 l-129 0 0 -125z"/>
</g>
</svg>
