<?xml version="1.0" encoding="utf-8"?>
<!-- Generator: Adobe Illustrator 21.1.0, SVG Export Plug-In . SVG Version: 6.00 Build 0)  -->
<svg version="1.1" id="Layer_1" xmlns="http://www.w3.org/2000/svg" xmlns:xlink="http://www.w3.org/1999/xlink" x="0px" y="0px"
	 viewBox="0 0 60 60" style="enable-background:new 0 0 60 60;" xml:space="preserve">
<style type="text/css">
	.st0{fill:#00843D;}
</style>
<g>
	<path class="st0" d="M30,4c6.1,0,11,4.9,11,11s-4.9,11-11,11s-11-4.9-11-11S23.9,4,30,4 M30,0c-8.3,0-15,6.7-15,15s6.7,15,15,15
		s15-6.7,15-15S38.3,0,30,0L30,0z"/>
</g>
<g>
	<polygon class="st0" points="45,48 39,48 39,42 35,42 35,48 29,48 29,52 35,52 35,58 39,58 39,52 45,52 	"/>
	<path class="st0" d="M35,32H25c-9.9,0-18,8.1-18,18v10h22v-4H11v-6c0-7.7,6.3-14,14-14h10c7.7,0,14,6.3,14,14v6h-4v4h8V50
		C53,40.1,44.9,32,35,32z"/>
</g>
</svg>
