<?xml version="1.0" encoding="utf-8"?>
<!-- Generator: Adobe Illustrator 21.1.0, SVG Export Plug-In . SVG Version: 6.00 Build 0)  -->
<svg version="1.1" id="Layer_1" xmlns="http://www.w3.org/2000/svg" xmlns:xlink="http://www.w3.org/1999/xlink" x="0px" y="0px"
	 viewBox="0 0 60 60" style="enable-background:new 0 0 60 60;" xml:space="preserve">
<style type="text/css">
	.st0{fill:#00843D;}
</style>
<g>
	<path class="st0" d="M40,2c-3.6,0-6.9,1.5-9.2,3.9c1,0.9,2,1.8,2.8,2.9C35.2,7.1,37.5,6,40,6c5,0,9,4,9,9c0,5-4,9-9,9
		c-1.3,0-2.5-0.3-3.6-0.7c-0.3,1.3-0.8,2.6-1.5,3.7c1.5,0.6,3.2,1,5,1c7.2,0,13-5.8,13-13C53,7.8,47.2,2,40,2z"/>
	<path class="st0" d="M44.3,30h-8.7c-1,0-2,0.1-3,0.3c-0.3,0.4-0.7,0.8-1.1,1.1c1.7,0.7,3.2,1.5,4.6,2.6h8.2
		C50.8,34,56,39.2,56,45.7V50H44v4h16v-8.3C60,37,53,30,44.3,30z"/>
</g>
<g>
	<g>
		<path class="st0" d="M20,10c5,0,9,4,9,9s-4,9-9,9s-9-4-9-9S15,10,20,10 M20,6C12.8,6,7,11.8,7,19s5.8,13,13,13s13-5.8,13-13
			S27.2,6,20,6L20,6z"/>
	</g>
	<g>
		<path class="st0" d="M24.3,38C30.8,38,36,43.2,36,49.7V54H4v-4.3C4,43.2,9.2,38,15.7,38H24.3 M24.3,34h-8.7C7,34,0,41,0,49.7V58
			h40v-8.3C40,41,33,34,24.3,34L24.3,34z"/>
	</g>
</g>
</svg>
