<?xml version="1.0" encoding="utf-8"?>
<!-- Generator: Adobe Illustrator 19.2.1, SVG Export Plug-In . SVG Version: 6.00 Build 0)  -->
<svg version="1.1" id="Layer_1" xmlns="http://www.w3.org/2000/svg" xmlns:xlink="http://www.w3.org/1999/xlink" x="0px" y="0px"
	 viewBox="0 0 48 48" style="enable-background:new 0 0 48 48;" xml:space="preserve">
<style type="text/css">
	.st0{fill:#0578BE;}
	.st1{fill:#FFFFFF;}
</style>
<g>
	<path class="st0" d="M24,46.8C11.5,46.8,1.2,36.5,1.2,24C1.2,11.5,11.5,1.2,24,1.2c12.5,0,22.8,10.2,22.8,22.8
		C46.8,36.5,36.5,46.8,24,46.8z"/>
	<path class="st1" d="M24,2.5c11.9,0,21.5,9.6,21.5,21.5S35.9,45.5,24,45.5S2.5,35.9,2.5,24S12.1,2.5,24,2.5 M24,0
		C10.7,0,0,10.7,0,24s10.7,24,24,24s24-10.7,24-24S37.3,0,24,0L24,0z"/>
</g>
<rect x="9.7" y="21.2" transform="matrix(0.7071 -0.7071 0.7071 0.7071 -10.5729 19.8683)" class="st1" width="18" height="3"/>
<rect x="20.3" y="21.2" transform="matrix(-0.7071 -0.7071 0.7071 -0.7071 33.9749 59.4663)" class="st1" width="18" height="3"/>
</svg>
